<?xml version="1.0" encoding="UTF-8" standalone="no"?>
<!-- Generator: Adobe Illustrator 12.0.0, SVG Export Plug-In . SVG Version: 6.00 Build 51448)  -->
<svg
   xmlns:dc="http://purl.org/dc/elements/1.1/"
   xmlns:cc="http://web.resource.org/cc/"
   xmlns:rdf="http://www.w3.org/1999/02/22-rdf-syntax-ns#"
   xmlns:svg="http://www.w3.org/2000/svg"
   xmlns="http://www.w3.org/2000/svg"
   xmlns:sodipodi="http://sodipodi.sourceforge.net/DTD/sodipodi-0.dtd"
   xmlns:inkscape="http://www.inkscape.org/namespaces/inkscape"
   version="1.1"
   id="Layer_1"
   width="192"
   height="192"
   viewBox="0 0 192 192"
   overflow="visible"
   enable-background="new 0 0 192 192"
   xml:space="preserve"
   sodipodi:version="0.32"
   inkscape:version="0.45.1"
   sodipodi:docname="Circle_sign_42.svg"
   inkscape:output_extension="org.inkscape.output.svg.inkscape"
   sodipodi:docbase="C:\Users\Kyle J. Goldstein\Desktop"><metadata
   id="metadata24"><rdf:RDF><cc:Work
       rdf:about=""><dc:format>image/svg+xml</dc:format><dc:type
         rdf:resource="http://purl.org/dc/dcmitype/StillImage" /></cc:Work></rdf:RDF></metadata><defs
   id="defs22" /><sodipodi:namedview
   inkscape:window-height="750"
   inkscape:window-width="1280"
   inkscape:pageshadow="2"
   inkscape:pageopacity="0.0"
   guidetolerance="10.0"
   gridtolerance="10.0"
   objecttolerance="10.0"
   borderopacity="1.0"
   bordercolor="#666666"
   pagecolor="#ffffff"
   id="base"
   inkscape:zoom="1.9635417"
   inkscape:cx="96"
   inkscape:cy="96"
   inkscape:window-x="-8"
   inkscape:window-y="-8"
   inkscape:current-layer="g15" />
<g
   id="g3">
	<path
   d="M0,12C0,5.3725586,5.3725586,0,12,0h168c6.6269531,0,12,5.3725586,12,12v168c0,6.6269531-5.3730469,12-12,12H12   c-6.6274414,0-12-5.3730469-12-12V12L0,12z"
   id="path5" />
	<path
   d="M96,96"
   id="path7" />
</g>
<g
   id="g9">
	<circle
   fill="#FFFFFF"
   cx="96"
   cy="96"
   r="92"
   id="circle11" />
	<path
   fill="#FFFFFF"
   d="M96,96"
   id="path13" />
</g>
<g
   id="g15">
	<path
   fill-rule="evenodd"
   clip-rule="evenodd"
   d="M88.8623047,120.2753906h-9.2158203v24.0478516H64.3828125v-24.0478516H16.71875   v-9.0722656l47.6640625-63.3598633h15.2636719v58.6079102h9.2158203V120.2753906z M64.3828125,106.4511719V70.1630859   l-27.3603516,36.2880859H64.3828125z"
   id="path17" />
	<path
   clip-rule="evenodd"
   d="M 163.28125,144.32324 L 97.61719,144.32324 C 97.90527,133.57129 100.59375,123.7793 105.68164,114.94727 C 109.61719,108.03516 115.28125,101.79492 122.67383,96.226563 C 123.72949,95.555176 125.16992,94.547363 126.99316,93.203125 L 132.0332,90.467285 L 141.53711,85.13916 C 145.85742,82.643066 148.01758,79.13916 148.01758,74.626953 C 148.01758,71.075195 146.26563,68.05127 142.76172,65.555176 C 139.25781,63.059082 135.15332,61.811524 130.44922,61.811524 C 120.46582,61.811524 114.60938,66.323242 112.88086,75.347168 L 97.61719,71.891602 C 99.25,63.92334 103.01758,57.65918 108.92188,53.099121 C 114.8252,48.539063 122.00195,46.259277 130.44922,46.259277 C 139.56934,46.259277 147.32129,49.042969 153.70508,54.611328 C 160.08984,60.179199 163.28125,66.947266 163.28125,74.915039 C 163.28125,82.979492 160.01758,89.891602 153.48926,95.651367 C 152.24121,96.707031 150.84961,97.571289 149.31348,98.243164 L 144.56152,101.41113 L 139.52148,104.00391 L 134.76953,106.73926 C 126.51367,111.53906 120.22559,118.88281 115.90527,128.77148 L 163.28125,128.77148 L 163.28125,144.32324 z "
   id="path19"
   sodipodi:nodetypes="cccccccsssccsssscccccccc"
   style="fill-rule:evenodd" />
</g>
</svg>